# xmcd
#
# Track frame offsets: 
#        150
#        20026
#        33570
#        48256
#        63223
#        78186
#        97072
#        111356
#        121749
#        133800
#        148182
#        165654
#        183257
#        201162
#        213853
#        227683
#        245131
#        262670
#        275183
#        292081
#        307492
#
# Disc length: 4292 seconds
#
# Revision: 0
# Processed by: cddbd v1.5.2PL0 Copyright (c) Steve Scherf et al.
# Submitted via: ExactAudioCopy v0.99pb4
#
DISCID=4310c215
DTITLE=Various Artist - 100 Hollandse Hits - CD 1
DYEAR=2010
DGENRE=National Folk
TTITLE0=De Woonboot - Stef Ekkel
TTITLE1=Maak Me Gek - Gerard Joling
TTITLE2=Heb Je Even Voor Mij - Frans Bauer
TTITLE3=Mijn Valentino - Dellie Pfaff
TTITLE4=Voor Een Zoen - Rob Ronalds
TTITLE5=Ik Zing Dit Lied Voor Jou Alleen - Jantje Smit
TTITLE6=Jij Bent Te Mooi Voor Mij  - Frank Galan
TTITLE7=Lana - John Spencer
TTITLE8=Ze Roepen...Maar Ik Hoor Ze Niet - Rob and John
TTITLE9=Waarom Heb Jij Me Laten Staan - Heikrekels
TTITLE10=Kom Bij Me Terug - Exit
TTITLE11=Alles Wat Ik Vraag - Rob Zorn
TTITLE12=Stille Willy - Henny Weijmans
TTITLE13=Een Zomer Lang - Judith Peters
TTITLE14=Kom Dans Met Mij - Wesley
TTITLE15=Mississippi - Dennis Jones and Pussycat
TTITLE16=De Vissers van San Juan - Frank and Mirella
TTITLE17=Iedere Avond - Bobby Prins
TTITLE18=Dolores - Mickey 2 Much
TTITLE19=Geef Mij Een Antwoord Op Mijn Vragen - Denans
TTITLE20=Bonustrack
EXTD=
EXTT0=
EXTT1=
EXTT2=
EXTT3=
EXTT4=
EXTT5=
EXTT6=
EXTT7=
EXTT8=
EXTT9=
EXTT10=
EXTT11=
EXTT12=
EXTT13=
EXTT14=
EXTT15=
EXTT16=
EXTT17=
EXTT18=
EXTT19=
EXTT20=
PLAYORDER=
